<svg xmlns="http://www.w3.org/2000/svg" xmlns:xlink="http://www.w3.org/1999/xlink" height="44" viewBox="0 0 24 44" width="24"><svg height="16" viewBox="0 0 16 16" width="16" x="4" y="4"><path fill="#F2CE46" d="M15.8,6.7l-3.5,3.6l0.8,5c0,0.1,0,0.1,0,0.2c0,0.3-0.1,0.5-0.4,0.5c-0.1,0-0.3-0.1-0.4-0.1L8,13.5l-4.3,2.4 C3.6,15.9,3.4,16,3.3,16c-0.3,0-0.4-0.2-0.4-0.5c0-0.1,0-0.1,0-0.2l0.8-5L0.2,6.7C0.1,6.6,0,6.4,0,6.2c0-0.3,0.3-0.4,0.5-0.5L5.4,5 l2.2-4.6C7.6,0.2,7.8,0,8,0c0.2,0,0.4,0.2,0.5,0.4L10.6,5l4.8,0.7c0.2,0,0.5,0.2,0.5,0.5C16,6.4,15.9,6.6,15.8,6.7z M13.9,6.8 L9.8,6.2L8,2.3L6.2,6.2L2.1,6.8l2.9,3L4.4,14L8,12l3.6,2l-0.7-4.2L13.9,6.8z"/></svg><svg height="16" viewBox="0 0 16 16" width="16" x="4" y="24"><path fill="#F2CE46" d="M15.8,6.7l-3.5,3.6l0.8,5c0,0.1,0,0.1,0,0.2c0,0.3-0.1,0.5-0.4,0.5c-0.1,0-0.3-0.1-0.4-0.1L8,13.5l-4.3,2.4 C3.6,15.9,3.4,16,3.3,16c-0.3,0-0.4-0.2-0.4-0.5c0-0.1,0-0.1,0-0.2l0.8-5L0.2,6.7C0.1,6.6,0,6.4,0,6.2c0-0.3,0.3-0.4,0.5-0.5L5.4,5 l2.2-4.6C7.6,0.2,7.8,0,8,0s0.4,0.2,0.5,0.4L10.6,5l4.8,0.7c0.2,0,0.5,0.2,0.5,0.5C16,6.4,15.9,6.6,15.8,6.7z"/></svg></svg>