<?xml version="1.0" encoding="utf-8"?>
<!-- Generator: Adobe Illustrator 18.0.0, SVG Export Plug-In . SVG Version: 6.00 Build 0)  -->
<!DOCTYPE svg PUBLIC "-//W3C//DTD SVG 1.1//EN" "http://www.w3.org/Graphics/SVG/1.1/DTD/svg11.dtd">
<svg version="1.1" id="Слой_1" xmlns="http://www.w3.org/2000/svg" xmlns:xlink="http://www.w3.org/1999/xlink" x="0px" y="0px"
	 viewBox="0 0 16 16" enable-background="new 0 0 16 16" xml:space="preserve">
<path fill="#F2CE46" d="M15.8,6.7l-3.5,3.6l0.8,5c0,0.1,0,0.1,0,0.2c0,0.3-0.1,0.5-0.4,0.5c-0.1,0-0.3-0.1-0.4-0.1L8,13.5l-4.3,2.4
	C3.6,15.9,3.4,16,3.3,16c-0.3,0-0.4-0.2-0.4-0.5c0-0.1,0-0.1,0-0.2l0.8-5L0.2,6.7C0.1,6.6,0,6.4,0,6.2c0-0.3,0.3-0.4,0.5-0.5L5.4,5
	l2.2-4.6C7.6,0.2,7.8,0,8,0s0.4,0.2,0.5,0.4L10.6,5l4.8,0.7c0.2,0,0.5,0.2,0.5,0.5C16,6.4,15.9,6.6,15.8,6.7z"/>
</svg>
